# xmcd
#
# Track frame offsets: 
#        150
#        15210
#        29342
#        42100
#        57585
#        70047
#        83967
#        96452
#        110230
#        124177
#        135722
#
# Disc length: 2010 seconds
#
# Revision: 3
# Processed by: cddbd v1.4PL0 Copyright (c) Steve Scherf et al.
# Submitted via: ExactAudioCopy v0.90b2
#
DISCID=9607d80b
DTITLE=Tom T. Hall - Greatest Hits
DYEAR=1900
DGENRE=Country
TTITLE0=Homecoming
TTITLE1=Shoeshine Man
TTITLE2=I Miss A Lot Of Trains
TTITLE3=Salute To A Switchblade
TTITLE4=I Washed My Face In The Morning Dew
TTITLE5=Ballad Of Forty Dollars
TTITLE6=The Year That Clayton Delaney Died
TTITLE7=That's How I Got To Memphis
TTITLE8=A Week In A Country Jail
TTITLE9=One Hundred Children
TTITLE10=Me And Jesus
EXTD=
EXTT0=
EXTT1=
EXTT2=
EXTT3=
EXTT4=
EXTT5=
EXTT6=
EXTT7=
EXTT8=
EXTT9=
EXTT10=
PLAYORDER=
